#N canvas 1247 315 1224 870 12;
#X obj 83 424 noise~;
#X obj 97 493 bob~;
#X obj 92 586 dac~;
#X obj 255 23 loadbang;
#X obj 301 77 tgl 15 0 empty empty empty 17 7 0 10 -262144 -1 -1 1
1;
#X obj 301 97 metro 10;
#X obj 207 408 snapshot~;
#X obj 203 465 vsl 15 128 50 150 0 0 empty empty empty 0 -9 0 10 -262144
-1 -1 0 1;
#X obj 360 501 +~ 1;
#X obj 360 525 /~ 2;
#X obj 359 685 snapshot~;
#X obj 358 441 osc~ 0.1;
#X obj 364 711 vsl 15 128 0 4 0 0 empty empty empty 0 -9 0 10 -262144
-1 -1 0 1;
#X obj 507 214 +~ 1;
#X obj 507 238 /~ 2;
#X obj 507 310 snapshot~;
#X obj 520 336 vsl 15 128 1 4.3 0 0 empty empty empty 0 -9 0 10 -262144
-1 -1 0 1;
#X obj 507 190 osc~ 0.05;
#X obj 507 286 +~ 100;
#X obj 507 262 *~ 200;
#X obj 95 550 clip~ -1 1;
#X obj 359 661 +~ 0;
#X obj 94 521 *~ 0.9;
#X obj 120 163 / 60;
#X floatatom 120 191 5 0 0 0 - - -;
#X floatatom 225 466 5 0 0 0 - - -;
#X obj 120 245 osc~;
#X obj 120 269 +~ 1;
#X obj 124 304 /~ 2;
#X obj 124 328 *~ 300;
#X msg 210 84 60;
#X msg 172 63 30;
#X msg 87 52 12;
#X obj 119 133 / 2;
#X msg 132 55 20;
#X msg 56 73 6;
#X text 17 18 oscillation freq;
#X obj 359 305 snapshot~;
#X floatatom 359 329 5 0 0 0 - - -;
#X obj 514 576 snapshot~;
#X floatatom 514 600 5 0 0 0 - - -;
#X obj 500 657 snapshot~;
#X floatatom 500 681 64 0 0 0 - - -;
#X msg 31 108 3;
#X obj 359 637 *~ 4;
#X obj 356 569 pow~ 2;
#X obj 358 465 *~ 1;
#X connect 0 0 1 0;
#X connect 1 0 22 0;
#X connect 3 0 4 0;
#X connect 3 0 32 0;
#X connect 4 0 5 0;
#X connect 5 0 6 0;
#X connect 5 0 10 0;
#X connect 5 0 15 0;
#X connect 5 0 37 0;
#X connect 5 0 39 0;
#X connect 5 0 41 0;
#X connect 6 0 1 1;
#X connect 6 0 7 0;
#X connect 6 0 25 0;
#X connect 8 0 9 0;
#X connect 9 0 39 0;
#X connect 9 0 45 0;
#X connect 10 0 12 0;
#X connect 10 0 1 2;
#X connect 11 0 46 0;
#X connect 13 0 14 0;
#X connect 14 0 19 0;
#X connect 15 0 16 0;
#X connect 17 0 13 0;
#X connect 18 0 15 0;
#X connect 19 0 18 0;
#X connect 20 0 2 0;
#X connect 20 0 2 1;
#X connect 21 0 10 0;
#X connect 22 0 20 0;
#X connect 23 0 24 0;
#X connect 24 0 26 0;
#X connect 24 0 11 0;
#X connect 24 0 37 0;
#X connect 26 0 27 0;
#X connect 27 0 28 0;
#X connect 28 0 29 0;
#X connect 29 0 6 0;
#X connect 30 0 33 0;
#X connect 31 0 33 0;
#X connect 32 0 33 0;
#X connect 33 0 23 0;
#X connect 34 0 33 0;
#X connect 35 0 33 0;
#X connect 37 0 38 0;
#X connect 38 0 11 0;
#X connect 39 0 40 0;
#X connect 41 0 42 0;
#X connect 43 0 33 0;
#X connect 44 0 21 0;
#X connect 45 0 41 0;
#X connect 45 0 44 0;
#X connect 46 0 8 0;
