#N canvas 4 50 632 394 12;
#X obj 167 710 clip~ -1 1;
#X obj 130 790 throw~ outL;
#X obj 242 787 throw~ outR;
#X text 84 762 ((o;
#X text 328 761 o));
#X obj 35 58 hsl 256 15 0 127 0 0 empty empty empty -2 -8 0 10 -262144
-1 -1 0 1;
#X obj 143 140 s slider1;
#X obj 329 57 hsl 256 15 0 127 0 0 empty empty empty -2 -8 0 10 -262144
-1 -1 25500 1;
#X obj 314 147 s slider2;
#X floatatom 255 74 5 0 0 0 - - -;
#X floatatom 551 73 5 0 0 0 - - -;
#X obj 325 15 r knob2;
#X obj 33 16 r knob1;
#X obj 33 37 * 127;
#X obj 326 36 * 127;
#X floatatom 1431 141 5 0 0 0 - - -;
#X obj 1360 170 s volSlider;
#X obj 1429 102 vsl 15 32 0 127 0 0 empty empty empty 0 -9 0 10 -262144
-1 -1 0 1;
#X obj 1429 72 float 64;
#X obj 54 242 hsl 256 15 0 127 0 0 empty empty empty -2 -8 0 10 -262144
-1 -1 0 1;
#X floatatom 276 258 5 0 0 0 - - -;
#X obj 51 221 * 127;
#X obj 50 200 r knob3;
#X obj 39 332 s slider3;
#X obj 338 256 hsl 256 15 0 127 0 0 empty empty empty -2 -8 0 10 -262144
-1 -1 0 1;
#X floatatom 560 280 5 0 0 0 - - -;
#X obj 335 235 * 127;
#X obj 334 214 r knob4;
#X obj 331 330 s slider4;
#X obj 686 421 noise~;
#X obj 700 490 bob~;
#X obj 860 20 loadbang;
#X obj 904 74 tgl 15 0 empty empty empty 17 7 0 10 -262144 -1 -1 1
1;
#X obj 904 94 metro 10;
#X obj 810 405 snapshot~;
#X obj 806 462 vsl 15 128 50 150 0 0 empty empty empty 0 -9 0 10 -262144
-1 -1 12700 1;
#X obj 963 498 +~ 1;
#X obj 963 522 /~ 2;
#X obj 962 682 snapshot~;
#X obj 961 438 osc~ 0.1;
#X obj 967 708 vsl 15 128 0 4 0 0 empty empty empty 0 -9 0 10 -262144
-1 -1 480 1;
#X obj 1110 211 +~ 1;
#X obj 1110 235 /~ 2;
#X obj 1110 307 snapshot~;
#X obj 1123 333 vsl 15 128 1 4.3 0 0 empty empty empty 0 -9 0 10 -262144
-1 -1 12700 1;
#X obj 1110 187 osc~ 0.05;
#X obj 1110 283 +~ 100;
#X obj 1110 259 *~ 200;
#X obj 962 658 +~ 0;
#X obj 697 518 *~ 0.9;
#X obj 723 160 / 60;
#X floatatom 723 188 5 0 0 0 - - -;
#X floatatom 828 463 5 0 0 0 - - -;
#X obj 723 242 osc~;
#X obj 723 266 +~ 1;
#X obj 727 301 /~ 2;
#X msg 813 81 60;
#X msg 780 60 30;
#X msg 690 49 12;
#X obj 722 130 / 2;
#X msg 740 50 20;
#X msg 659 70 6;
#X text 620 15 oscillation freq;
#X obj 962 302 snapshot~;
#X floatatom 962 326 5 0 0 0 - - -;
#X obj 1117 573 snapshot~;
#X floatatom 1117 597 5 0 0 0 - - -;
#X obj 1103 654 snapshot~;
#X floatatom 1103 678 64 0 0 0 - - -;
#X msg 634 105 3;
#X obj 961 462 *~ -1;
#X obj 959 566 pow~ 1;
#X obj 727 349 +~ 40;
#X obj 727 325 *~ 200;
#X obj 962 634 *~ 4.3;
#X connect 0 0 1 0;
#X connect 0 0 2 0;
#X connect 5 0 6 0;
#X connect 5 0 9 0;
#X connect 7 0 8 0;
#X connect 7 0 10 0;
#X connect 11 0 14 0;
#X connect 12 0 13 0;
#X connect 13 0 5 0;
#X connect 14 0 7 0;
#X connect 17 0 15 0;
#X connect 17 0 16 0;
#X connect 18 0 17 0;
#X connect 19 0 20 0;
#X connect 19 0 23 0;
#X connect 21 0 19 0;
#X connect 22 0 21 0;
#X connect 24 0 25 0;
#X connect 24 0 28 0;
#X connect 26 0 24 0;
#X connect 27 0 26 0;
#X connect 29 0 30 0;
#X connect 30 0 49 0;
#X connect 31 0 32 0;
#X connect 31 0 58 0;
#X connect 32 0 33 0;
#X connect 33 0 34 0;
#X connect 33 0 38 0;
#X connect 33 0 43 0;
#X connect 33 0 63 0;
#X connect 33 0 65 0;
#X connect 33 0 67 0;
#X connect 34 0 30 1;
#X connect 34 0 35 0;
#X connect 34 0 52 0;
#X connect 36 0 37 0;
#X connect 37 0 65 0;
#X connect 37 0 71 0;
#X connect 38 0 40 0;
#X connect 38 0 30 2;
#X connect 39 0 70 0;
#X connect 41 0 42 0;
#X connect 42 0 47 0;
#X connect 43 0 44 0;
#X connect 45 0 41 0;
#X connect 46 0 43 0;
#X connect 47 0 46 0;
#X connect 48 0 38 0;
#X connect 49 0 0 0;
#X connect 50 0 51 0;
#X connect 51 0 53 0;
#X connect 51 0 39 0;
#X connect 51 0 63 0;
#X connect 53 0 54 0;
#X connect 54 0 55 0;
#X connect 55 0 73 0;
#X connect 56 0 59 0;
#X connect 57 0 59 0;
#X connect 58 0 59 0;
#X connect 59 0 50 0;
#X connect 60 0 59 0;
#X connect 61 0 59 0;
#X connect 63 0 64 0;
#X connect 64 0 39 0;
#X connect 65 0 66 0;
#X connect 67 0 68 0;
#X connect 69 0 59 0;
#X connect 70 0 36 0;
#X connect 71 0 67 0;
#X connect 71 0 74 0;
#X connect 72 0 34 0;
#X connect 73 0 72 0;
#X connect 74 0 48 0;
