#N canvas -8 85 1260 636 12;
#X obj 1316 748 clip~ -1 1;
#X text 1233 800 ((o;
#X text 1477 799 o));
#X obj 443 820 bob~, f 17;
#X obj 444 849 *~ 0.5;
#X obj 729 574 vsl 15 128 0 110 0 0 empty empty empty 0 -9 0 10 #fcfcfc
#000000 #000000 0 1;
#X floatatom 727 715 5 0 0 0 - - - 0;
#X obj 1087 534 vsl 15 128 0 4 0 0 empty empty empty 0 -9 0 10 #fcfcfc
#000000 #000000 0 1;
#X floatatom 1086 670 5 0 0 0 - - - 0;
#X obj 401 512 hip~ 40;
#X obj 637 342 threshold~ 0.99 1 0.01 1;
#X obj 660 373 bng 15 50 10 0 empty empty empty 17 7 0 10 #fcfcfc #000000
#000000;
#X obj 21 71 hsl 256 15 0 127 0 0 empty empty empty -2 -8 0 10 #fcfcfc
#000000 #000000 0 1;
#X obj 143 140 s slider1;
#X obj 329 57 hsl 256 15 0 127 0 0 empty empty empty -2 -8 0 10 #fcfcfc
#000000 #000000 0 1;
#X obj 314 147 s slider2;
#X obj 121 323 r slider1;
#X floatatom 255 74 5 0 0 0 - - - 0;
#X floatatom 551 73 5 0 0 0 - - - 0;
#X obj 325 15 r knob2;
#X obj 33 16 r knob1;
#X obj 33 37 * 127;
#X obj 326 36 * 127;
#X obj 889 830 r volSlider;
#X floatatom 1318 300 5 0 0 0 - - - 0;
#X obj 1247 329 s volSlider;
#X obj 1318 260 vsl 15 32 0 127 0 0 empty empty empty 0 -9 0 10 #fcfcfc
#000000 #000000 0 1;
#X obj 1316 231 float 64;
#X obj 94 490 * 2000;
#X obj 101 390 / 127;
#X obj 75 580 line~;
#X obj 72 534 pack f 120;
#X obj 431 323 phasor~;
#X floatatom 225 579 5 0 0 0 - - - 0;
#X floatatom 1071 287 5 0 0 0 - - - 0;
#X obj 1071 310 / 127;
#X obj 1078 494 * 4;
#X obj 852 453 r slider2;
#X floatatom 852 477 5 0 0 0 - - - 0;
#X obj 852 500 / 127;
#X obj 1071 263 r slider3;
#X obj 641 63 hsl 256 15 0 127 0 0 empty empty empty -2 -8 0 10 #fcfcfc
#000000 #000000 0 1;
#X floatatom 863 79 5 0 0 0 - - - 0;
#X obj 638 42 * 127;
#X obj 637 21 r knob3;
#X obj 626 153 s slider3;
#X obj 450 776 line~;
#X obj 1075 743 line~;
#X obj 1075 718 pack f 120;
#X obj 848 568 * 14000;
#X obj 852 524 pow 2;
#X obj 654 451 float;
#X obj 678 499 +;
#X floatatom 735 471 5 0 0 0 - - - 0;
#X obj 448 734 pack f 50;
#X obj 660 417 + 500;
#X floatatom 925 311 5 0 0 0 - - - 0;
#X obj 925 334 / 127;
#X obj 925 288 r slider4;
#X obj 925 77 hsl 256 15 0 127 0 0 empty empty empty -2 -8 0 10 #fcfcfc
#000000 #000000 0 1;
#X floatatom 1126 99 5 0 0 0 - - - 0;
#X obj 922 56 * 127;
#X obj 921 35 r knob4;
#X obj 918 151 s slider4;
#X obj 94 468 pow 4;
#X obj 660 393 random;
#X obj 925 358 * 1100;
#X obj 1318 825 dac~;
#X connect 0 0 67 0;
#X connect 0 0 67 1;
#X connect 3 0 4 0;
#X connect 4 0 0 0;
#X connect 5 0 6 0;
#X connect 6 0 54 0;
#X connect 7 0 8 0;
#X connect 8 0 48 0;
#X connect 9 0 3 0;
#X connect 10 0 11 0;
#X connect 11 0 65 0;
#X connect 12 0 13 0;
#X connect 12 0 17 0;
#X connect 14 0 15 0;
#X connect 14 0 18 0;
#X connect 16 0 29 0;
#X connect 19 0 22 0;
#X connect 20 0 21 0;
#X connect 21 0 12 0;
#X connect 22 0 14 0;
#X connect 26 0 24 0;
#X connect 26 0 25 0;
#X connect 27 0 26 0;
#X connect 28 0 31 0;
#X connect 29 0 64 0;
#X connect 30 0 32 0;
#X connect 31 0 30 0;
#X connect 31 0 33 0;
#X connect 32 0 9 0;
#X connect 32 0 10 0;
#X connect 34 0 35 0;
#X connect 35 0 36 0;
#X connect 36 0 7 0;
#X connect 37 0 38 0;
#X connect 38 0 39 0;
#X connect 39 0 50 0;
#X connect 40 0 34 0;
#X connect 41 0 42 0;
#X connect 41 0 45 0;
#X connect 43 0 41 0;
#X connect 44 0 43 0;
#X connect 46 0 3 1;
#X connect 47 0 3 2;
#X connect 48 0 47 0;
#X connect 49 0 52 1;
#X connect 50 0 49 0;
#X connect 51 0 53 0;
#X connect 51 0 52 0;
#X connect 52 0 5 0;
#X connect 54 0 46 0;
#X connect 55 0 51 0;
#X connect 56 0 57 0;
#X connect 57 0 66 0;
#X connect 58 0 56 0;
#X connect 59 0 60 0;
#X connect 59 0 63 0;
#X connect 61 0 59 0;
#X connect 62 0 61 0;
#X connect 64 0 28 0;
#X connect 65 0 55 0;
#X connect 66 0 65 1;
