#N canvas 975 70 857 1241 12;
#X obj 47 482 dac~;
#X obj 9 5 hsl 256 15 0 1 0 0 empty empty empty -2 -8 0 10 -262144
-1 -1 2300 1;
#X obj 6 29 s slider1;
#X obj 284 3 hsl 256 15 0 1 0 0 empty empty empty -2 -8 0 10 -262144
-1 -1 8400 1;
#X obj 277 27 s slider2;
#X obj 48 451 clip~ -1 1;
#X obj 47 425 osc~;
#X obj 7 127 r slider1;
#X obj 8 191 * 2000;
#X obj 86 126 r slider2;
#X obj 8 215 osc~;
#X obj 37 257 *~;
#X obj 86 174 * 10000;
#X floatatom 126 35 5 0 0 0 - - -;
#X floatatom 371 43 5 0 0 0 - - -;
#X connect 1 0 2 0;
#X connect 1 0 13 0;
#X connect 3 0 4 0;
#X connect 3 0 14 0;
#X connect 5 0 0 0;
#X connect 5 0 0 1;
#X connect 6 0 5 0;
#X connect 7 0 8 0;
#X connect 8 0 10 0;
#X connect 9 0 12 0;
#X connect 10 0 11 0;
#X connect 11 0 6 0;
#X connect 12 0 11 1;
