#N canvas 0 450 1580 366 12;
#X obj 54 576 dac~;
#X obj 14 3 hsl 256 15 0 127 0 0 empty empty empty -2 -8 0 10 #fcfcfc
#000000 #000000 0 1;
#X obj 12 36 s slider1;
#X obj 284 3 hsl 256 15 0 127 0 0 empty empty empty -2 -8 0 10 #fcfcfc
#000000 #000000 0 1;
#X obj 277 27 s slider2;
#X obj 55 545 clip~ -1 1;
#X obj 54 519 osc~;
#X obj 6 91 r slider1;
#X obj 8 191 * 2000;
#X obj 94 77 r slider2;
#X obj 15 342 osc~;
#X obj 134 181 * 10000;
#X floatatom 126 35 5 0 0 0 - - - 0;
#X floatatom 371 43 5 0 0 0 - - - 0;
#X obj 6 115 / 127;
#X obj 136 129 / 127;
#X obj 6 140 pow 4;
#X obj 136 154 pow 2;
#X obj 44 373 *~;
#X obj 34 251 line~;
#X obj 134 231 line~;
#X obj 8 216 pack f 80;
#X obj 134 206 pack f 80;
#X connect 1 0 2 0;
#X connect 1 0 12 0;
#X connect 3 0 4 0;
#X connect 3 0 13 0;
#X connect 5 0 0 0;
#X connect 5 0 0 1;
#X connect 6 0 5 0;
#X connect 7 0 14 0;
#X connect 8 0 21 0;
#X connect 9 0 15 0;
#X connect 10 0 18 0;
#X connect 11 0 22 0;
#X connect 14 0 16 0;
#X connect 15 0 17 0;
#X connect 16 0 8 0;
#X connect 17 0 11 0;
#X connect 18 0 6 0;
#X connect 19 0 10 0;
#X connect 20 0 18 1;
#X connect 21 0 19 0;
#X connect 22 0 20 0;
