#N canvas 1470 273 717 838 12;
#X obj 228 349 osc~ 440;
#X obj 123 584 dac~;
#X obj 214 225 *~ 440;
#X obj 340 76 hsl 256 15 0 127 0 0 empty empty empty -2 -8 0 10 -262144
-1 -1 0 1;
#X obj 210 154 * 1000;
#X obj 331 561 print;
#X floatatom 424 359 5 0 0 0 - - -;
#X msg 372 415 ya;
#X obj 266 429 r p;
#X msg 469 414 ok;
#X obj 469 438 s p;
#X obj 213 193 osc~;
#X obj 197 93 r knob1;
#X obj 337 113 s input1;
#X obj 342 184 / 127;
#X obj 339 216 s knob1;
#X obj 339 163 r input1;
#X connect 0 0 1 0;
#X connect 0 0 1 1;
#X connect 2 0 0 0;
#X connect 3 0 13 0;
#X connect 4 0 11 0;
#X connect 7 0 5 0;
#X connect 8 0 5 0;
#X connect 9 0 10 0;
#X connect 11 0 2 0;
#X connect 12 0 4 0;
#X connect 14 0 15 0;
#X connect 16 0 14 0;
